HIERARCHY
ROOT mixamorig:Hips
{
	OFFSET -0.000008 104.274872 1.554316
	CHANNELS 6 Xposition Yposition Zposition Xrotation Yrotation Zrotation
	JOINT mixamorig:Spine
	{
		OFFSET -0.000005 10.181595 0.131519
		CHANNELS 6 Xposition Yposition Zposition Xrotation Yrotation Zrotation
		JOINT mixamorig:Spine1
		{
			OFFSET -0.000000 9.893959 -1.470707
			CHANNELS 6 Xposition Yposition Zposition Xrotation Yrotation Zrotation
			JOINT mixamorig:Spine2
			{
				OFFSET -0.000000 9.220757 -1.370641
				CHANNELS 6 Xposition Yposition Zposition Xrotation Yrotation Zrotation
				JOINT mixamorig:Neck
				{
					OFFSET 0.000001 16.740417 -2.049036
					CHANNELS 6 Xposition Yposition Zposition Xrotation Yrotation Zrotation
					JOINT mixamorig:Head
					{
						OFFSET 0.000000 9.617874 1.685006
						CHANNELS 6 Xposition Yposition Zposition Xrotation Yrotation Zrotation
						JOINT mixamorig:HeadTop_End
						{
							OFFSET 0.000002 22.037354 7.501101
							CHANNELS 6 Xposition Yposition Zposition Xrotation Yrotation Zrotation
							End Site
							{
								OFFSET 0.000168 2310.654297 -282.823242
							}
						}
					}
				}
				JOINT mixamorig:RightShoulder
				{
					OFFSET -4.569970 11.014908 -2.160885
					CHANNELS 6 Xposition Yposition Zposition Xrotation Yrotation Zrotation
					JOINT mixamorig:RightArm
					{
						OFFSET -10.592851 -0.524811 -2.232101
						CHANNELS 6 Xposition Yposition Zposition Xrotation Yrotation Zrotation
						JOINT mixamorig:RightForeArm
						{
							OFFSET -27.841511 0.000031 -0.000004
							CHANNELS 6 Xposition Yposition Zposition Xrotation Yrotation Zrotation
							JOINT mixamorig:RightHand
							{
								OFFSET -28.328831 -0.000015 0.000015
								CHANNELS 6 Xposition Yposition Zposition Xrotation Yrotation Zrotation
								JOINT mixamorig:RightHandThumb1
								{
									OFFSET -2.464806 -1.573990 2.681852
									CHANNELS 6 Xposition Yposition Zposition Xrotation Yrotation Zrotation
									JOINT mixamorig:RightHandThumb2
									{
										OFFSET -3.215179 -1.872803 1.924282
										CHANNELS 6 Xposition Yposition Zposition Xrotation Yrotation Zrotation
										JOINT mixamorig:RightHandThumb3
										{
											OFFSET -2.654831 -1.527969 1.512609
											CHANNELS 6 Xposition Yposition Zposition Xrotation Yrotation Zrotation
											JOINT mixamorig:RightHandThumb4
											{
												OFFSET -2.018814 -1.152008 1.108052
												CHANNELS 6 Xposition Yposition Zposition Xrotation Yrotation Zrotation
												End Site
												{
													OFFSET -188.809540 -114.533607 132.431396
												}
											}
										}
									}
								}
								JOINT mixamorig:RightHandIndex1
								{
									OFFSET -9.108284 -0.517868 2.259835
									CHANNELS 6 Xposition Yposition Zposition Xrotation Yrotation Zrotation
									JOINT mixamorig:RightHandIndex2
									{
										OFFSET -3.699989 0.000000 0.001215
										CHANNELS 6 Xposition Yposition Zposition Xrotation Yrotation Zrotation
										JOINT mixamorig:RightHandIndex3
										{
											OFFSET -2.850006 0.000031 -0.000522
											CHANNELS 6 Xposition Yposition Zposition Xrotation Yrotation Zrotation
											JOINT mixamorig:RightHandIndex4
											{
												OFFSET -2.772186 -0.000015 -0.000020
												CHANNELS 6 Xposition Yposition Zposition Xrotation Yrotation Zrotation
												End Site
												{
													OFFSET -277.218445 0.000000 -0.050231
												}
											}
										}
									}
								}
								JOINT mixamorig:RightHandMiddle1
								{
									OFFSET -9.532516 -0.000031 -0.000023
									CHANNELS 6 Xposition Yposition Zposition Xrotation Yrotation Zrotation
									JOINT mixamorig:RightHandMiddle2
									{
										OFFSET -3.700005 -0.000015 0.003713
										CHANNELS 6 Xposition Yposition Zposition Xrotation Yrotation Zrotation
										JOINT mixamorig:RightHandMiddle3
										{
											OFFSET -2.949974 0.000015 -0.002054
											CHANNELS 6 Xposition Yposition Zposition Xrotation Yrotation Zrotation
											JOINT mixamorig:RightHandMiddle4
											{
												OFFSET -2.946640 0.000000 -0.000156
												CHANNELS 6 Xposition Yposition Zposition Xrotation Yrotation Zrotation
												End Site
												{
													OFFSET -294.664337 0.000000 -0.113670
												}
											}
										}
									}
								}
								JOINT mixamorig:RightHandRing1
								{
									OFFSET -9.103600 -0.043076 -1.865134
									CHANNELS 6 Xposition Yposition Zposition Xrotation Yrotation Zrotation
									JOINT mixamorig:RightHandRing2
									{
										OFFSET -3.379288 0.000000 -0.001055
										CHANNELS 6 Xposition Yposition Zposition Xrotation Yrotation Zrotation
										JOINT mixamorig:RightHandRing3
										{
											OFFSET -2.889687 -0.000015 0.000379
											CHANNELS 6 Xposition Yposition Zposition Xrotation Yrotation Zrotation
											JOINT mixamorig:RightHandRing4
											{
												OFFSET -2.638809 -0.000015 0.000941
												CHANNELS 6 Xposition Yposition Zposition Xrotation Yrotation Zrotation
												End Site
												{
													OFFSET -263.880371 0.000000 0.516020
												}
											}
										}
									}
								}
								JOINT mixamorig:RightHandPinky1
								{
									OFFSET -8.076683 -0.486710 -3.806280
									CHANNELS 6 Xposition Yposition Zposition Xrotation Yrotation Zrotation
									JOINT mixamorig:RightHandPinky2
									{
										OFFSET -3.600014 -0.000015 -0.003747
										CHANNELS 6 Xposition Yposition Zposition Xrotation Yrotation Zrotation
										JOINT mixamorig:RightHandPinky3
										{
											OFFSET -2.099983 0.000000 -0.005739
											CHANNELS 6 Xposition Yposition Zposition Xrotation Yrotation Zrotation
											JOINT mixamorig:RightHandPinky4
											{
												OFFSET -2.115768 -0.000031 -0.003680
												CHANNELS 6 Xposition Yposition Zposition Xrotation Yrotation Zrotation
												End Site
												{
													OFFSET -211.577087 0.000000 -0.350686
												}
											}
										}
									}
								}
							}
						}
					}
				}
				JOINT mixamorig:LeftShoulder
				{
					OFFSET 4.570447 11.014725 -2.160855
					CHANNELS 6 Xposition Yposition Zposition Xrotation Yrotation Zrotation
					JOINT mixamorig:LeftArm
					{
						OFFSET 10.592371 -0.524597 -2.232119
						CHANNELS 6 Xposition Yposition Zposition Xrotation Yrotation Zrotation
						JOINT mixamorig:LeftForeArm
						{
							OFFSET 27.841532 -0.000031 0.000026
							CHANNELS 6 Xposition Yposition Zposition Xrotation Yrotation Zrotation
							JOINT mixamorig:LeftHand
							{
								OFFSET 28.328846 -0.000061 0.000022
								CHANNELS 6 Xposition Yposition Zposition Xrotation Yrotation Zrotation
								JOINT mixamorig:LeftHandThumb1
								{
									OFFSET 2.466141 -1.576172 2.681732
									CHANNELS 6 Xposition Yposition Zposition Xrotation Yrotation Zrotation
									JOINT mixamorig:LeftHandThumb2
									{
										OFFSET 3.217812 -1.872070 1.916482
										CHANNELS 6 Xposition Yposition Zposition Xrotation Yrotation Zrotation
										JOINT mixamorig:LeftHandThumb3
										{
											OFFSET 2.656029 -1.528778 1.514513
											CHANNELS 6 Xposition Yposition Zposition Xrotation Yrotation Zrotation
											JOINT mixamorig:LeftHandThumb4
											{
												OFFSET 2.020889 -1.154053 1.115139
												CHANNELS 6 Xposition Yposition Zposition Xrotation Yrotation Zrotation
												End Site
												{
													OFFSET 190.885437 -115.081749 130.048782
												}
											}
										}
									}
								}
								JOINT mixamorig:LeftHandIndex1
								{
									OFFSET 9.109314 -0.518021 2.259871
									CHANNELS 6 Xposition Yposition Zposition Xrotation Yrotation Zrotation
									JOINT mixamorig:LeftHandIndex2
									{
										OFFSET 3.699989 0.000000 -0.000322
										CHANNELS 6 Xposition Yposition Zposition Xrotation Yrotation Zrotation
										JOINT mixamorig:LeftHandIndex3
										{
											OFFSET 2.850006 0.000000 0.000352
											CHANNELS 6 Xposition Yposition Zposition Xrotation Yrotation Zrotation
											JOINT mixamorig:LeftHandIndex4
											{
												OFFSET 2.774864 -0.000031 -0.000027
												CHANNELS 6 Xposition Yposition Zposition Xrotation Yrotation Zrotation
												End Site
												{
													OFFSET 277.486267 0.000000 -0.009857
												}
											}
										}
									}
								}
								JOINT mixamorig:LeftHandMiddle1
								{
									OFFSET 9.533394 0.000061 0.000044
									CHANNELS 6 Xposition Yposition Zposition Xrotation Yrotation Zrotation
									JOINT mixamorig:LeftHandMiddle2
									{
										OFFSET 3.699989 -0.000015 -0.000231
										CHANNELS 6 Xposition Yposition Zposition Xrotation Yrotation Zrotation
										JOINT mixamorig:LeftHandMiddle3
										{
											OFFSET 2.949997 -0.000015 -0.000059
											CHANNELS 6 Xposition Yposition Zposition Xrotation Yrotation Zrotation
											JOINT mixamorig:LeftHandMiddle4
											{
												OFFSET 2.952896 0.000031 0.000063
												CHANNELS 6 Xposition Yposition Zposition Xrotation Yrotation Zrotation
												End Site
												{
													OFFSET 295.289337 0.000000 0.022810
												}
											}
										}
									}
								}
								JOINT mixamorig:LeftHandRing1
								{
									OFFSET 9.104523 -0.042999 -1.865074
									CHANNELS 6 Xposition Yposition Zposition Xrotation Yrotation Zrotation
									JOINT mixamorig:LeftHandRing2
									{
										OFFSET 3.150009 -0.000031 0.000043
										CHANNELS 6 Xposition Yposition Zposition Xrotation Yrotation Zrotation
										JOINT mixamorig:LeftHandRing3
										{
											OFFSET 2.949982 -0.000015 0.000040
											CHANNELS 6 Xposition Yposition Zposition Xrotation Yrotation Zrotation
											JOINT mixamorig:LeftHandRing4
											{
												OFFSET 2.644348 0.000000 0.000057
												CHANNELS 6 Xposition Yposition Zposition Xrotation Yrotation Zrotation
												End Site
												{
													OFFSET 264.434631 0.000000 0.012105
												}
											}
										}
									}
								}
								JOINT mixamorig:LeftHandPinky1
								{
									OFFSET 8.077789 -0.486847 -3.806259
									CHANNELS 6 Xposition Yposition Zposition Xrotation Yrotation Zrotation
									JOINT mixamorig:LeftHandPinky2
									{
										OFFSET 3.599953 0.000031 0.014727
										CHANNELS 6 Xposition Yposition Zposition Xrotation Yrotation Zrotation
										JOINT mixamorig:LeftHandPinky3
										{
											OFFSET 2.100021 0.000015 0.007705
											CHANNELS 6 Xposition Yposition Zposition Xrotation Yrotation Zrotation
											JOINT mixamorig:LeftHandPinky4
											{
												OFFSET 2.125504 0.000031 0.007517
												CHANNELS 6 Xposition Yposition Zposition Xrotation Yrotation Zrotation
												End Site
												{
													OFFSET 212.550781 0.000000 0.625752
												}
											}
										}
									}
								}
							}
						}
					}
				}
			}
		}
	}
	JOINT mixamorig:RightUpLeg
	{
		OFFSET -8.207787 -6.751648 -1.599560
		CHANNELS 6 Xposition Yposition Zposition Xrotation Yrotation Zrotation
		JOINT mixamorig:RightLeg
		{
			OFFSET -0.000002 -44.370117 0.345942
			CHANNELS 6 Xposition Yposition Zposition Xrotation Yrotation Zrotation
			JOINT mixamorig:RightFoot
			{
				OFFSET 0.000003 -44.423679 -3.043532
				CHANNELS 6 Xposition Yposition Zposition Xrotation Yrotation Zrotation
				JOINT mixamorig:RightToeBase
				{
					OFFSET -0.000002 -8.728671 10.710558
					CHANNELS 6 Xposition Yposition Zposition Xrotation Yrotation Zrotation
					JOINT mixamorig:RightToe_End
					{
						OFFSET -0.000001 -0.000679 9.278119
						CHANNELS 6 Xposition Yposition Zposition Xrotation Yrotation Zrotation
						End Site
						{
							OFFSET 0.000000 -0.067690 927.812134
						}
					}
				}
			}
		}
	}
	JOINT mixamorig:LeftUpLeg
	{
		OFFSET 8.207793 -6.751686 -1.599556
		CHANNELS 6 Xposition Yposition Zposition Xrotation Yrotation Zrotation
		JOINT mixamorig:LeftLeg
		{
			OFFSET -0.000004 -44.370014 0.346954
			CHANNELS 6 Xposition Yposition Zposition Xrotation Yrotation Zrotation
			JOINT mixamorig:LeftFoot
			{
				OFFSET -0.000001 -44.423672 -3.044401
				CHANNELS 6 Xposition Yposition Zposition Xrotation Yrotation Zrotation
				JOINT mixamorig:LeftToeBase
				{
					OFFSET -0.000002 -8.728669 10.710558
					CHANNELS 6 Xposition Yposition Zposition Xrotation Yrotation Zrotation
					JOINT mixamorig:LeftToe_End
					{
						OFFSET -0.000003 -0.000679 9.278133
						CHANNELS 6 Xposition Yposition Zposition Xrotation Yrotation Zrotation
						End Site
						{
							OFFSET 0.000000 -0.068021 927.813477
						}
					}
				}
			}
		}
	}
}
MOTION
Frames: 3
Frame Time: 0.033333
0.000006 104.270477 1.554256 0.000010 0.000003 -0.000113 -0.000005 10.181587 0.131522 0.000001 -0.000003 0.000084 -0.000000 9.893967 -1.470711 0.000001 0.000000 -0.000000 -0.000000 9.220802 -1.370642 0.000000 -0.000000 -0.000000 0.000001 16.740433 -2.049030 0.000000 -0.000000 -0.000000 0.000000 9.617859 1.685014 0.000000 0.000000 0.000000 0.000002 22.037384 7.501101 0.000000 -0.000000 0.000000 -4.569968 11.014880 -2.160881 0.000008 0.000001 -0.000038 -10.592870 -0.524771 -2.231905 77.223567 29.775950 -23.973920 -27.841496 0.000010 0.000573 -46.785870 113.720635 67.056181 -28.328827 0.000008 0.000025 -0.000324 -0.000044 0.000006 -2.464430 -1.573725 2.682296 -51.889091 -171.329298 -21.639568 -3.215291 -1.872587 1.924649 152.329543 31.425851 4.572363 -2.654956 -1.527854 1.513068 143.507356 27.895153 -32.870050 -2.018841 -1.152016 1.108059 -0.000001 -0.000002 -0.000001 -9.108373 -0.517551 2.260134 100.403801 15.340250 -18.420385 -3.700071 0.000312 0.001518 97.584620 13.442859 -15.303343 -2.850096 0.000365 -0.000259 95.558738 11.554609 -12.723495 -2.772170 -0.000013 -0.000019 0.000001 -0.000001 -0.000001 -9.532578 0.000269 0.000222 90.267418 15.292001 -15.504652 -3.700067 0.000336 0.003962 91.567545 10.759449 -10.960339 -2.950068 0.000315 -0.001810 92.293396 11.389354 -11.844001 -2.946634 0.000001 -0.000156 0.000000 -0.000002 0.000001 -9.103698 -0.042780 -1.864889 85.960431 18.532368 -17.247199 -3.379338 0.000314 -0.000820 90.767490 9.206806 -9.347906 -2.889763 0.000345 0.000637 94.883970 8.145124 -8.918391 -2.638801 -0.000001 0.000940 0.000001 -0.000000 0.000003 -8.076773 -0.486435 -3.806084 70.720940 22.585989 -16.015166 -3.600042 0.000241 -0.003567 73.818314 12.020085 -8.760395 -2.100013 0.000297 -0.005562 76.521908 7.030444 -5.369959 -2.115778 -0.000056 -0.003671 0.000001 -0.000000 -0.000002 4.570446 11.014691 -2.160851 -0.000018 0.000010 -0.000021 10.592506 -0.524549 -2.232388 56.899953 -62.801875 36.602755 27.841742 -0.000090 -0.000102 231.677776 -72.984328 246.419401 28.328842 -0.000027 0.000033 0.000022 -0.000088 -0.000001 2.466177 -1.576126 2.681906 291.151075 18.642528 -338.676460 3.217824 -1.871999 1.916536 253.527551 44.015809 50.745690 2.656029 -1.528796 1.514602 -116.040488 44.786049 59.158529 2.020895 -1.154047 1.115137 0.000001 -0.000003 0.000001 9.109391 -0.517975 2.259892 95.779388 -59.265271 64.350996 3.700022 0.000008 -0.000354 22.520274 -25.656596 5.197659 2.850038 -0.000003 0.000332 21.008158 -24.089874 4.530752 2.774876 -0.000013 -0.000036 -0.000004 0.000001 0.000001 9.533423 0.000116 -0.000082 50.129989 -9.139410 4.277481 3.700011 -0.000005 -0.000265 17.377862 -12.652651 1.940737 2.950029 0.000029 -0.000053 10.230852 -20.507966 1.856205 2.952875 -0.000048 0.000073 0.000003 -0.000003 -0.000001 9.104549 -0.043006 -1.865140 28.478605 -15.801352 4.034454 3.150007 0.000016 -0.000014 13.403240 2.731088 -0.320824 2.949983 -0.000002 0.000041 2.753832 -3.568946 0.085895 2.644318 0.000046 0.000054 -0.000001 0.000000 -0.000000 8.077803 -0.486836 -3.806320 28.076398 -16.723527 4.397645 3.599956 -0.000012 0.014700 0.416146 11.260165 -0.080965 2.099991 0.000000 0.007689 -4.848149 16.562797 0.630209 2.125503 -0.000015 0.007518 0.000000 0.000003 0.000000 -8.207786 -6.751667 -1.599560 -0.077001 -0.000003 0.000080 -0.000002 -44.370110 0.345938 0.153719 -0.000000 -0.000000 0.000000 -44.423679 -3.043532 -0.076700 0.000000 -0.000002 -0.000006 -8.728667 10.710559 -0.000009 -0.000000 -0.000000 -0.000001 -0.000679 9.278123 0.000000 -0.000000 -0.000000 8.207792 -6.751710 -1.599556 -0.074518 -0.000003 0.000081 -0.000002 -44.370014 0.346960 0.148822 0.000002 0.000000 -0.000001 -44.423664 -3.044403 -0.074314 0.000000 -0.000002 -0.000004 -8.728671 10.710558 0.000007 -0.000000 -0.000000 0.000000 -0.000680 9.278137 -0.000000 0.000000 -0.000001 
0.000006 104.270477 1.554256 0.000010 0.000003 -0.000113 -0.000005 10.181587 0.131522 0.000001 -0.000003 0.000084 -0.000000 9.893967 -1.470711 0.000001 0.000000 -0.000000 -0.000000 9.220802 -1.370642 0.000000 -0.000000 -0.000000 0.000001 16.740433 -2.049030 0.000000 -0.000000 -0.000000 0.000000 9.617859 1.685014 0.000000 0.000000 0.000000 0.000002 22.037384 7.501101 0.000000 -0.000000 0.000000 -4.569968 11.014880 -2.160881 0.000008 0.000001 -0.000038 -10.592875 -0.524766 -2.231907 77.303343 29.815951 -24.039944 -27.841499 0.000017 0.000554 -46.884075 113.289090 66.747143 -28.328827 0.000021 0.000030 -0.000322 -0.000043 0.000006 -2.464430 -1.573713 2.682314 -51.496150 -170.924009 -20.363418 -3.215272 -1.872576 1.924652 152.670014 31.446088 4.403247 -2.654974 -1.527862 1.513063 144.031136 27.777423 -33.342634 -2.018826 -1.152016 1.108062 -0.000006 -0.000001 0.000002 -9.108375 -0.517557 2.260134 100.540911 15.458163 -18.605309 -3.700094 0.000303 0.001509 97.763394 13.385106 -15.285168 -2.850087 0.000362 -0.000262 95.488367 11.437038 -12.578788 -2.772151 -0.000013 -0.000020 -0.000001 0.000000 0.000001 -9.532584 0.000275 0.000228 89.873958 15.837899 -15.945319 -3.700079 0.000331 0.003963 91.729919 11.031059 -11.270748 -2.950048 0.000343 -0.001834 92.385658 11.489997 -11.967791 -2.946613 0.000004 -0.000155 -0.000003 -0.000000 0.000001 -9.103701 -0.042760 -1.864886 85.131075 19.303354 -17.713052 -3.379335 0.000308 -0.000821 91.017182 9.840038 -10.033100 -2.889757 0.000341 0.000656 95.600519 8.412764 -9.325653 -2.638812 -0.000018 0.000941 0.000002 0.000000 0.000001 -8.076765 -0.486423 -3.806076 70.146412 23.233863 -16.311147 -3.600060 0.000242 -0.003576 73.648168 12.662466 -9.214543 -2.100019 0.000317 -0.005548 76.531020 7.368821 -5.637285 -2.115769 -0.000024 -0.003677 -0.000001 -0.000000 -0.000003 4.570446 11.014691 -2.160851 -0.000018 0.000010 -0.000021 10.592506 -0.524548 -2.232385 56.362045 -63.825345 36.902788 27.841747 -0.000056 -0.000094 231.301187 -73.417280 245.566611 28.328831 0.000004 0.000019 0.000022 -0.000089 0.000000 2.466177 -1.576124 2.681881 289.695917 19.657132 -337.906424 3.217817 -1.872014 1.916556 252.607443 44.504881 51.630827 2.656025 -1.528774 1.514596 -115.571992 44.700132 58.751853 2.020895 -1.154067 1.115151 0.000003 0.000002 0.000001 9.109386 -0.517973 2.259856 89.609015 -55.356969 55.022064 3.700011 -0.000010 -0.000348 24.836967 -27.311830 6.131304 2.850053 0.000015 0.000331 22.853198 -24.866958 5.102644 2.774882 -0.000049 -0.000012 -0.000004 -0.000002 -0.000001 9.533434 0.000105 -0.000091 51.457225 -13.512827 6.530425 3.700024 -0.000032 -0.000264 18.842916 -15.912667 2.656381 2.950031 -0.000020 -0.000061 11.000342 -22.010346 2.146336 2.952871 -0.000031 0.000055 0.000002 0.000001 0.000001 9.104556 -0.043000 -1.865156 31.901980 -17.515158 5.042971 3.150014 0.000003 -0.000004 14.362413 0.330036 -0.041395 2.949986 0.000012 0.000039 3.295457 -4.663417 0.134328 2.644317 0.000030 0.000056 -0.000001 0.000000 0.000000 8.077812 -0.486857 -3.806337 27.688969 -18.109553 4.690256 3.599955 0.000013 0.014700 2.119380 8.908978 -0.190132 2.099995 -0.000031 0.007692 -4.538265 15.569744 0.549533 2.125504 -0.000016 0.007515 -0.000001 0.000000 0.000000 -8.207786 -6.751667 -1.599560 -0.077001 -0.000003 0.000080 -0.000002 -44.370110 0.345938 0.153719 -0.000000 -0.000000 0.000000 -44.423679 -3.043532 -0.076700 0.000000 -0.000002 -0.000006 -8.728667 10.710559 -0.000009 -0.000000 -0.000000 -0.000001 -0.000679 9.278123 0.000000 -0.000000 -0.000000 8.207792 -6.751710 -1.599556 -0.074518 -0.000003 0.000081 -0.000002 -44.370014 0.346960 0.148822 0.000002 0.000000 -0.000001 -44.423664 -3.044403 -0.074314 0.000000 -0.000002 -0.000004 -8.728671 10.710558 0.000007 -0.000000 -0.000000 0.000000 -0.000680 9.278137 -0.000000 0.000000 -0.000001 
0.000006 104.270477 1.554256 0.000010 0.000003 -0.000113 -0.000005 10.181587 0.131522 0.000001 -0.000003 0.000084 -0.000000 9.893967 -1.470711 0.000001 0.000000 -0.000000 -0.000000 9.220802 -1.370642 0.000000 -0.000000 -0.000000 0.000001 16.740433 -2.049030 0.000000 -0.000000 -0.000000 0.000000 9.617859 1.685014 0.000000 0.000000 0.000000 0.000002 22.037384 7.501101 0.000000 -0.000000 0.000000 -4.569968 11.014880 -2.160881 0.000008 0.000001 -0.000038 -10.592869 -0.524768 -2.231890 77.329223 30.531898 -24.637930 -27.841501 0.000012 0.000562 -47.096272 113.355274 67.080415 -28.328814 0.000009 0.000025 -0.000322 -0.000044 0.000007 -2.464441 -1.573715 2.682308 -51.215989 -170.154820 -19.397946 -3.215273 -1.872581 1.924659 152.230778 31.534188 5.410734 -2.654962 -1.527860 1.513064 143.946838 27.823412 -32.877983 -2.018831 -1.151997 1.108064 -0.000001 0.000000 0.000004 -9.108382 -0.517529 2.260125 100.471584 15.376871 -18.485861 -3.700078 0.000317 0.001515 97.939694 13.358998 -15.302279 -2.850085 0.000365 -0.000257 95.862094 11.431291 -12.654496 -2.772181 -0.000017 -0.000018 -0.000001 0.000000 -0.000002 -9.532592 0.000289 0.000232 90.111901 15.834457 -16.007378 -3.700077 0.000322 0.003954 91.839830 11.321780 -11.591934 -2.950068 0.000329 -0.001813 92.384019 11.628395 -12.111590 -2.946631 0.000002 -0.000154 0.000002 -0.000001 -0.000000 -9.103712 -0.042766 -1.864896 85.368144 19.403792 -17.878561 -3.379346 0.000308 -0.000817 90.713313 10.114224 -10.257917 -2.889768 0.000343 0.000626 95.265710 8.468374 -9.332246 -2.638811 0.000001 0.000943 0.000001 0.000001 0.000001 -8.076777 -0.486419 -3.806085 70.246850 23.273894 -16.369873 -3.600051 0.000245 -0.003581 73.314001 12.573357 -9.092447 -2.100019 0.000292 -0.005546 76.168712 7.200401 -5.468976 -2.115772 -0.000056 -0.003674 0.000000 0.000008 -0.000005 4.570446 11.014691 -2.160851 -0.000018 0.000010 -0.000021 10.592506 -0.524545 -2.232380 56.332398 -63.932265 36.952932 27.841747 -0.000067 -0.000092 230.973720 -73.553972 245.055002 28.328825 -0.000014 0.000027 0.000020 -0.000090 -0.000000 2.466178 -1.576124 2.681885 291.551187 20.790841 -338.516661 3.217821 -1.872013 1.916515 251.924670 46.340119 52.985063 2.656018 -1.528798 1.514610 -116.053206 46.126187 59.884899 2.020879 -1.154081 1.115155 0.000000 0.000004 0.000004 9.109377 -0.518019 2.259876 99.823228 -61.201029 70.169914 3.700023 0.000004 -0.000363 25.137202 -26.448603 6.004678 2.850036 0.000019 0.000299 25.725327 -24.505433 5.677440 2.774884 -0.000028 -0.000017 -0.000000 0.000001 0.000001 9.533441 0.000095 -0.000080 48.760140 -16.111438 7.335777 3.700023 -0.000030 -0.000258 19.927960 -15.415609 2.723431 2.950032 0.000005 -0.000079 14.821283 -21.034377 2.767243 2.952871 -0.000048 0.000066 -0.000000 0.000008 -0.000005 9.104558 -0.043005 -1.865137 24.181897 -17.951305 3.876333 3.150009 0.000044 -0.000010 15.093338 1.414185 -0.187179 2.949987 0.000004 0.000031 7.259472 -4.025563 0.255616 2.644318 0.000015 0.000063 -0.000000 0.000000 -0.000000 8.077806 -0.486891 -3.806316 19.200703 -16.789087 3.008574 3.599957 0.000018 0.014697 2.213532 9.943367 -0.221082 2.099987 -0.000010 0.007681 -2.511880 15.867300 0.284909 2.125509 -0.000001 0.007514 -0.000002 0.000002 0.000001 -8.207786 -6.751667 -1.599560 -0.077001 -0.000003 0.000080 -0.000002 -44.370110 0.345938 0.153719 -0.000000 -0.000000 0.000000 -44.423679 -3.043532 -0.076700 0.000000 -0.000002 -0.000006 -8.728667 10.710559 -0.000009 -0.000000 -0.000000 -0.000001 -0.000679 9.278123 0.000000 -0.000000 -0.000000 8.207792 -6.751710 -1.599556 -0.074518 -0.000003 0.000081 -0.000002 -44.370014 0.346960 0.148822 0.000002 0.000000 -0.000001 -44.423664 -3.044403 -0.074314 0.000000 -0.000002 -0.000004 -8.728671 10.710558 0.000007 -0.000000 -0.000000 0.000000 -0.000680 9.278137 -0.000000 0.000000 -0.000001 
